<svg width="192" height="192" viewBox="0 0 192 192" fill="none" xmlns="http://www.w3.org/2000/svg">
<rect width="192" height="192" rx="30" fill="#1F2430"/>
<path d="M113.811 91.1313C112.307 94.8264 109.651 97.9374 106.237 100.002C102.823 102.066 98.8343 102.973 94.8635 102.589C90.8926 102.204 87.152 100.548 84.1977 97.8671C81.2435 95.1861 79.2336 91.6231 78.4667 87.7081C78.2967 86.8213 78.194 85.9229 78.1595 85.0206C78.1266 83.8365 77.687 82.6998 76.9147 81.8016C76.1424 80.9034 75.0843 80.2985 73.9185 80.0885L65.1025 78.5475C64.2711 78.3943 63.4164 78.4237 62.5975 78.6337C61.7787 78.8437 61.0153 79.2293 60.3602 79.7637C59.7052 80.2981 59.1743 80.9686 58.8041 81.7286C58.434 82.4887 58.2336 83.3201 58.2168 84.1653C58.2168 84.2224 58.2168 84.2795 58.2168 84.3438C58.3017 93.3499 61.5441 102.041 67.3789 108.902C73.2138 115.762 81.2711 120.358 90.1467 121.888C99.0223 123.418 108.153 121.785 115.948 117.274C123.744 112.762 129.709 105.659 132.804 97.2009C133.078 96.4043 133.176 95.5574 133.089 94.7193C133.002 93.8812 132.733 93.0722 132.301 92.3488C131.869 91.6254 131.285 91.005 130.588 90.531C129.891 90.057 129.1 89.7408 128.268 89.6045L119.447 88.0617C118.298 87.8529 117.113 88.0437 116.087 88.6021C115.062 89.1605 114.259 90.0531 113.811 91.1313V91.1313Z" fill="#FBD3D7"/>
<path d="M149.711 60.7619C148.093 61.3436 146.734 62.4791 145.873 63.9672C145.013 65.4553 144.706 67.2 145.009 68.8922C145.619 72.3558 145.925 75.8662 145.923 79.3832C145.923 109.671 123.572 134.222 96.0004 134.222C68.4292 134.222 46.0775 109.671 46.0775 79.3832C46.0322 68.8112 48.853 58.4246 54.2399 49.328C55.0821 47.9374 55.4325 46.3041 55.2349 44.6904C55.0374 43.0767 54.3034 41.5762 53.1507 40.4298L45.0203 32.3674C44.2332 31.5867 43.28 30.9937 42.2318 30.6328C41.1836 30.2719 40.0674 30.1523 38.9665 30.2829C37.8656 30.4135 36.8084 30.791 35.8738 31.3873C34.9391 31.9835 34.1512 32.7831 33.5686 33.7263C25.2777 47.5073 20.9304 63.3005 21.0008 79.3832C21.0008 124.883 54.5721 161.768 96.0004 161.768C137.429 161.768 171 124.883 171 79.3832C171.003 73.7892 170.487 68.207 169.459 62.7083C169.263 61.6604 168.841 60.6678 168.223 59.7991C167.605 58.9304 166.805 58.2065 165.88 57.6774C164.954 57.1483 163.925 56.8267 162.863 56.7349C161.801 56.6431 160.731 56.7833 159.729 57.1458L149.711 60.7619Z" fill="white"/>
</svg>
